# xmcd CD database file
#
# Track frame offsets:
#	150
#	35470
#	52850
#	94745
#	113004
#	149169
#	168660
#	188549
#
# Disc length: 3363 seconds
#
# Revision: 0
# Processed by: cddbd v1.5.1PL2 Copyright (c) Steve Scherf et al.
# Submitted via: CDex 1.51
#
DISCID=670d2108
DTITLE=Manfred Trendel - Magic Time
DYEAR=1900
DGENRE=New Age
TTITLE0=Millennium
TTITLE1=Inter Coast
TTITLE2=Far Away
TTITLE3=Space Light
TTITLE4=Planetary
TTITLE5=Over The Ocean
TTITLE6=Flying Star
TTITLE7=Magic Time
EXTD=
EXTT0=
EXTT1=
EXTT2=
EXTT3=
EXTT4=
EXTT5=
EXTT6=
EXTT7=
PLAYORDER=
